<?xml version="1.0" encoding="UTF-8" standalone="no"?><!DOCTYPE svg PUBLIC "-//W3C//DTD SVG 1.1//EN" "http://www.w3.org/Graphics/SVG/1.1/DTD/svg11.dtd"><svg width="100%" height="100%" viewBox="0 0 149 149" version="1.1" xmlns="http://www.w3.org/2000/svg" xmlns:xlink="http://www.w3.org/1999/xlink" xml:space="preserve" xmlns:serif="http://www.serif.com/" style="fill-rule:evenodd;clip-rule:evenodd;stroke-linejoin:round;stroke-miterlimit:2;"><g><g><rect x="37.043" y="27.213" width="17.508" height="46.827" style="fill:#fff;"/><rect x="93.007" y="27.213" width="17.508" height="46.827" style="fill:#fff;"/><rect x="20.243" y="27.213" width="17.508" height="46.827" style="fill:#169b62;"/><rect x="76.207" y="27.213" width="17.508" height="46.827" style="fill:#169b62;"/><rect x="53.843" y="27.213" width="17.508" height="46.827" style="fill:#ff883e;"/><rect x="109.807" y="27.213" width="17.508" height="46.827" style="fill:#ff883e;"/></g><path d="M74.04,145.183c-11.845,0 -22.222,-1.845 -31.13,-5.535c-8.908,-3.69 -16.323,-8.79 -22.245,-15.3c-5.923,-6.51 -10.365,-14.066 -13.326,-22.669c-2.961,-8.602 -4.442,-17.815 -4.442,-27.639c-0,-9.824 1.481,-19.037 4.442,-27.639c2.961,-8.602 7.403,-16.158 13.326,-22.669c5.923,-6.51 13.338,-11.61 22.245,-15.3c8.908,-3.69 19.284,-5.535 31.13,-5.535c11.845,0 22.222,1.845 31.13,5.535c8.908,3.69 16.323,8.79 22.245,15.3c5.923,6.51 10.365,14.066 13.326,22.669c2.961,8.602 4.442,17.815 4.442,27.639c0,9.824 -1.481,19.037 -4.442,27.639c-2.961,8.602 -7.403,16.158 -13.326,22.669c-5.923,6.51 -13.338,11.61 -22.245,15.3c-8.908,3.69 -19.284,5.535 -31.13,5.535Zm-27.974,-71.17c3.155,0 6.117,-0.591 8.884,-1.772c2.767,-1.181 5.2,-2.82 7.298,-4.918c2.098,-2.098 3.737,-4.53 4.918,-7.298c1.181,-2.767 1.772,-5.729 1.772,-8.884c0,-3.155 -0.591,-6.117 -1.772,-8.884c-1.181,-2.767 -2.82,-5.196 -4.918,-7.284c-2.098,-2.089 -4.53,-3.728 -7.298,-4.918c-2.767,-1.19 -5.729,-1.785 -8.884,-1.785c-3.155,0 -6.112,0.595 -8.871,1.785c-2.759,1.19 -5.187,2.829 -7.284,4.918c-2.098,2.089 -3.741,4.517 -4.931,7.284c-1.19,2.767 -1.785,5.729 -1.785,8.884c0,3.155 0.595,6.117 1.785,8.884c1.19,2.767 2.834,5.2 4.931,7.298c2.098,2.098 4.526,3.737 7.284,4.918c2.759,1.181 5.716,1.772 8.871,1.772Zm55.913,0c3.155,0 6.117,-0.591 8.884,-1.772c2.767,-1.181 5.2,-2.82 7.298,-4.918c2.098,-2.098 3.737,-4.53 4.918,-7.298c1.181,-2.767 1.772,-5.729 1.772,-8.884c0,-3.155 -0.591,-6.117 -1.772,-8.884c-1.181,-2.767 -2.82,-5.196 -4.918,-7.284c-2.098,-2.089 -4.53,-3.728 -7.298,-4.918c-2.767,-1.19 -5.729,-1.785 -8.884,-1.785c-3.155,0 -6.112,0.595 -8.871,1.785c-2.759,1.19 -5.187,2.829 -7.284,4.918c-2.098,2.089 -3.741,4.517 -4.931,7.284c-1.19,2.767 -1.785,5.729 -1.785,8.884c0,3.155 0.595,6.117 1.785,8.884c1.19,2.767 2.834,5.2 4.931,7.298c2.098,2.098 4.526,3.737 7.284,4.918c2.759,1.181 5.716,1.772 8.871,1.772Z" style="fill:#ffb02e;"/><path d="M53.733,104.57l0,10.153c0,3.76 0.917,7.18 2.75,10.259c1.833,3.079 4.289,5.523 7.368,7.333c3.079,1.81 6.475,2.715 10.189,2.715c3.76,0 7.18,-0.905 10.259,-2.715c3.079,-1.81 5.535,-4.254 7.368,-7.333c1.833,-3.079 2.75,-6.499 2.75,-10.259l0,-10.153c0,-3.76 -0.917,-7.18 -2.75,-10.259c-1.833,-3.079 -4.289,-5.523 -7.368,-7.333c-3.079,-1.81 -6.499,-2.715 -10.259,-2.715c-3.713,0 -7.11,0.905 -10.189,2.715c-3.079,1.81 -5.535,4.254 -7.368,7.333c-1.833,3.079 -2.75,6.499 -2.75,10.259Z" style="fill:#bb1d80;fill-rule:nonzero;"/></g></svg>